HIERARCHY
ROOT Hips
{
    OFFSET 0.000000 0.000000 0.000000
    CHANNELS 6 Xposition Yposition Zposition Zrotation Xrotation Yrotation
    JOINT Spine
    {
        OFFSET -0.000000 14.517291 0.000000
        CHANNELS 3 Zrotation Xrotation Yrotation
        JOINT Spine1
        {
            OFFSET -0.000000 37.558300 0.000000
            CHANNELS 3 Zrotation Xrotation Yrotation
            JOINT Neck
            {
                OFFSET -0.000000 37.404057 3.400369
                CHANNELS 3 Zrotation Xrotation Yrotation
                JOINT Head
                {
                    OFFSET -0.000000 24.785618 -3.540803
                    CHANNELS 3 Zrotation Xrotation Yrotation
                    End Site
                    {
                        OFFSET -0.000000 35.408028 0.000000
                    }
                }
            }
            JOINT LeftShoulder
            {
                OFFSET 6.992933 33.973492 -0.192664
                CHANNELS 3 Zrotation Xrotation Yrotation
                JOINT LeftArm
                {
                    OFFSET 21.527611 0.000000 0.000000
                    CHANNELS 3 Zrotation Xrotation Yrotation
                    JOINT LeftForeArm
                    {
                        OFFSET 56.353916 0.000000 0.000000
                        CHANNELS 3 Zrotation Xrotation Yrotation
                        JOINT LeftHand
                        {
                            OFFSET 47.774071 0.000000 0.000000
                            CHANNELS 3 Zrotation Xrotation Yrotation
                            End Site
                            {
                                OFFSET 26.556021 0.000000 0.000000
                            }
                        }
                    }
                }
            }
            JOINT RightShoulder
            {
                OFFSET -7.065357 33.973492 -0.192664
                CHANNELS 3 Zrotation Xrotation Yrotation
                JOINT RightArm
                {
                    OFFSET -21.527611 0.000000 0.000000
                    CHANNELS 3 Zrotation Xrotation Yrotation
                    JOINT RightForeArm
                    {
                        OFFSET -56.353916 0.000000 0.000000
                        CHANNELS 3 Zrotation Xrotation Yrotation
                        JOINT RightHand
                        {
                            OFFSET -47.774071 0.000000 0.000000
                            CHANNELS 3 Zrotation Xrotation Yrotation
                            End Site
                            {
                                OFFSET -26.556021 0.000000 0.000000
                            }
                        }
                    }
                }
            }
        }
    }
    JOINT LeftUpLeg
    {
        OFFSET 17.704014 0.000000 0.000000
        CHANNELS 3 Zrotation Xrotation Yrotation
        JOINT LeftLeg
        {
            OFFSET -0.000000 -81.181816 0.000000
            CHANNELS 3 Zrotation Xrotation Yrotation
            JOINT LeftFoot
            {
                OFFSET -0.000000 -62.821102 0.000000
                CHANNELS 3 Zrotation Xrotation Yrotation
                JOINT LeftToeBase
                {
                    OFFSET -0.000000 -11.507608 26.556021
                    CHANNELS 3 Zrotation Xrotation Yrotation
                    End Site
                    {
                        OFFSET -0.000000 0.000000 7.081605
                    }
                }
            }
        }
    }
    JOINT RightUpLeg
    {
        OFFSET -17.704014 0.000000 0.000000
        CHANNELS 3 Zrotation Xrotation Yrotation
        JOINT RightLeg
        {
            OFFSET -0.000000 -81.181816 0.000000
            CHANNELS 3 Zrotation Xrotation Yrotation
            JOINT RightFoot
            {
                OFFSET -0.000000 -62.821102 0.000000
                CHANNELS 3 Zrotation Xrotation Yrotation
                JOINT RightToeBase
                {
                    OFFSET -0.000000 -11.507608 26.556021
                    CHANNELS 3 Zrotation Xrotation Yrotation
                    End Site
                    {
                        OFFSET -0.000000 0.000000 7.081605
                    }
                }
            }
        }
    }
}
MOTION
Frames:    10
Frame Time:    0.008333
-14.147499    162.652924    -5.645660    0.962900    -0.536338    3.705714    0.161640    -1.596008    5.360776    -1.177243    2.944821    1.816141    -0.072820    2.600641    -5.600857    8.670495    -4.059939    -4.283835    -0.855457    6.485814    -7.032570    -43.423424    16.650158    -42.120327    -0.597614    -30.294899    -126.405228    -4.545953    -31.147184    -4.827481    -0.807524    14.051946    -1.396892    41.422733    15.633264    57.587814    -23.913677    -28.043144    67.895081    13.056445    -9.631457    26.675901    2.424536    -10.756585    -15.126569    -8.972838    11.566650    -23.909939    -0.634256    -2.759752    37.332981    0.000000    0.000000    0.000000    -2.441258    4.478869    -11.490531    4.061788    12.133468    -5.446127    0.505306    -14.610747    -5.165395    0.000000    0.000000    0.000000    
-14.134404    162.652252    -5.643242    0.963780    -0.536397    3.686279    0.161693    -1.597846    5.368775    -1.179600    2.959564    1.819031    -0.065860    2.607098    -5.602602    8.669165    -4.094829    -4.284182    -0.860372    6.473121    -7.036942    -43.422085    16.655453    -42.110039    -0.589057    -30.319862    -126.398041    -4.575985    -31.156519    -4.826221    -0.819823    14.060520    -1.398152    41.427044    15.633760    57.601742    -23.905239    -28.028032    67.896423    13.052659    -9.621665    26.671030    2.420261    -10.756615    -15.114944    -8.973625    11.577048    -23.911108    -0.626357    -2.764757    37.343403    0.000000    0.000000    0.000000    -2.450228    4.478247    -11.480390    4.066605    12.127895    -5.454166    0.335172    -14.634590    -5.136609    0.000000    0.000000    0.000000    
-14.125891    162.653519    -5.643744    0.961491    -0.535443    3.670250    0.164160    -1.589652    5.374041    -1.198996    2.960257    1.821272    -0.058548    2.592867    -5.603346    8.696345    -4.094018    -4.281096    -0.843035    6.467367    -7.030714    -43.437393    16.642601    -42.114452    -0.597062    -30.290154    -126.394318    -4.527597    -31.143795    -4.791108    -0.806418    14.057399    -1.399084    41.425026    15.636909    57.596157    -23.893429    -28.008495    67.901718    13.068531    -9.605143    26.651155    2.418356    -10.760635    -15.099830    -8.971567    11.589318    -23.908388    -0.628818    -2.774936    37.344906    0.000000    0.000000    0.000000    -2.452843    4.480900    -11.486851    4.065353    12.120216    -5.457431    0.513037    -14.601775    -5.128733    0.000000    0.000000    0.000000    
-14.116688    162.656525    -5.644109    0.958280    -0.532430    3.653815    0.161671    -1.588099    5.378850    -1.196436    2.968484    1.822922    -0.075079    2.579638    -5.611820    8.727336    -4.093208    -4.282386    -0.850899    6.456651    -7.030462    -43.432743    16.648228    -42.108376    -0.596631    -30.302771    -126.392365    -4.511553    -31.156719    -4.774958    -0.814671    14.052985    -1.391665    41.415234    15.649357    57.592140    -23.898222    -28.001884    67.897751    13.054940    -9.597499    26.662302    2.417255    -10.762177    -15.089798    -8.959604    11.594679    -23.925831    -0.633073    -2.776151    37.354351    0.000000    0.000000    0.000000    -2.454091    4.476710    -11.488517    4.061911    12.110285    -5.462143    0.346989    -14.619534    -5.083142    0.000000    0.000000    0.000000    
-14.108941    162.658569    -5.644287    0.953103    -0.531714    3.640195    0.159274    -1.581996    5.384298    -1.202306    2.966521    1.824878    -0.047140    2.587528    -5.607169    8.714984    -4.116487    -4.281525    -0.842891    6.451212    -7.041581    -43.445305    16.646597    -42.099125    -0.590062    -30.308369    -126.381073    -4.519267    -31.150518    -4.773685    -0.811910    14.068704    -1.391108    41.410828    15.637217    57.595207    -23.863974    -27.986973    67.909752    13.058546    -9.600203    26.665049    2.419599    -10.767315    -15.087916    -8.967860    11.603004    -23.911709    -0.627877    -2.775280    37.367569    0.000000    0.000000    0.000000    -2.453475    4.478230    -11.488464    4.062109    12.107974    -5.449430    0.524212    -14.576064    -5.109606    0.000000    0.000000    0.000000    
-14.101497    162.659744    -5.648925    0.948161    -0.521897    3.628306    0.159312    -1.576881    5.387384    -1.210415    2.959907    1.826043    -0.059098    2.579850    -5.610814    8.752714    -4.113295    -4.277333    -0.842677    6.448461    -7.043666    -43.455521    16.628422    -42.098743    -0.600078    -30.287373    -126.382835    -4.492691    -31.149242    -4.731126    -0.808191    14.067442    -1.391980    41.406055    15.636060    57.591476    -23.841745    -27.957869    67.914742    13.061857    -9.582657    26.651756    2.418568    -10.785336    -15.085390    -8.964379    11.621038    -23.925629    -0.610476    -2.769632    37.382431    0.000000    0.000000    0.000000    -2.453133    4.465313    -11.481465    4.056248    12.101486    -5.447954    0.361922    -14.592881    -5.068404    0.000000    0.000000    0.000000    
-14.095062    162.663132    -5.649085    0.942595    -0.519484    3.617724    0.154520    -1.567838    5.388877    -1.215137    2.954163    1.826632    -0.033511    2.575422    -5.608552    8.735340    -4.118969    -4.280871    -0.834829    6.447386    -7.050475    -43.464615    16.626013    -42.094917    -0.608354    -30.284042    -126.384209    -4.478477    -31.161385    -4.710800    -0.805259    14.066825    -1.384877    41.402653    15.639339    57.579426    -23.838854    -27.940022    67.914650    13.051372    -9.570464    26.624989    2.418154    -10.788734    -15.087069    -8.960776    11.626226    -23.926050    -0.602980    -2.771967    37.395161    0.000000    0.000000    0.000000    -2.451653    4.462135    -11.471856    4.059984    12.104874    -5.445710    0.551356    -14.563229    -5.102376    0.000000    0.000000    0.000000    
-14.089920    162.665512    -5.647995    0.934662    -0.514135    3.607267    0.150852    -1.561072    5.384689    -1.218895    2.953845    1.825377    -0.028895    2.563890    -5.604324    8.752645    -4.119668    -4.273892    -0.834392    6.440382    -7.046460    -43.463917    16.633015    -42.093857    -0.602390    -30.294792    -126.391632    -4.443646    -31.164167    -4.681318    -0.801502    14.062484    -1.378806    41.386326    15.655673    57.578846    -23.840628    -27.949621    67.908470    13.060168    -9.576667    26.650616    2.423825    -10.795712    -15.114414    -8.968059    11.628336    -23.903637    -0.589051    -2.765526    37.404312    0.000000    0.000000    0.000000    -2.449684    4.459607    -11.459785    4.062622    12.096119    -5.430086    0.524721    -14.543881    -5.103922    0.000000    0.000000    0.000000    
-14.082157    162.667953    -5.650917    0.928463    -0.507842    3.591256    0.147464    -1.548357    5.386498    -1.225482    2.937756    1.825964    -0.032702    2.564268    -5.606119    8.778467    -4.120099    -4.270660    -0.832993    6.453522    -7.046287    -43.468517    16.615828    -42.094330    -0.610818    -30.279047    -126.389961    -4.450206    -31.162409    -4.685830    -0.797066    14.064157    -1.363797    41.384651    15.652957    57.563469    -23.833643    -27.936518    67.910873    13.066564    -9.565578    26.643538    2.421572    -10.808208    -15.109447    -8.959085    11.645399    -23.909519    -0.587834    -2.774101    37.419514    0.000000    0.000000    0.000000    -2.450908    4.450059    -11.431486    4.065440    12.087492    -5.443744    0.364633    -14.558002    -5.066303    0.000000    0.000000    0.000000    
-14.076010    162.670349    -5.651431    0.919151    -0.499475    3.579614    0.144853    -1.544276    5.387447    -1.228456    2.936305    1.826353    -0.026838    2.548510    -5.603727    8.784540    -4.113811    -4.268285    -0.832967    6.452740    -7.056377    -43.463680    16.616192    -42.087490    -0.602017    -30.294628    -126.390732    -4.450328    -31.163170    -4.683871    -0.800011    14.067078    -1.357683    41.395569    15.644987    57.557423    -23.827602    -27.914274    67.915962    13.051660    -9.546750    26.645855    2.427480    -10.821329    -15.120050    -8.959405    11.650905    -23.918756    -0.554976    -2.725317    37.413925    0.000000    0.000000    0.000000    -2.446793    4.438629    -11.428062    4.066433    12.090268    -5.441027    0.381312    -14.551878    -5.064027    0.000000    0.000000    0.000000    
